<?xml version="1.0" encoding="UTF-8" standalone="no"?>
<!DOCTYPE svg PUBLIC "-//W3C//DTD SVG 1.1//EN" "http://www.w3.org/Graphics/SVG/1.1/DTD/svg11.dtd">
<svg width="100%" height="100%" viewBox="0 0 400 200" version="1.1" xmlns="http://www.w3.org/2000/svg" xmlns:xlink="http://www.w3.org/1999/xlink" xml:space="preserve" xmlns:serif="http://www.serif.com/" style="fill-rule:evenodd;clip-rule:evenodd;stroke-linecap:round;stroke-linejoin:round;stroke-miterlimit:1.5;">
    <g transform="matrix(1.47594,0,0,1.38267,81.4682,-45.9976)">
        <path d="M66.519,140.122C72.468,143.272 60.015,157.466 65.218,160.068C70.421,162.67 80.394,164.404 86.898,161.369C93.402,158.334 84.73,140.989 83.429,138.821C82.129,136.653 99.473,134.919 105.977,137.954C112.481,140.989 94.703,117.141 86.898,114.54C79.093,111.938 96.871,105.868 101.641,108.036C106.41,110.204 88.633,82.019 84.297,81.586C79.961,81.152 92.101,75.515 94.703,78.117C97.305,80.718 81.695,44.296 76.492,48.632C71.288,52.968 63.484,65.976 60.015,74.214C56.546,82.453 67.82,77.683 70.421,82.019C73.023,86.355 57.413,94.16 54.811,104.133C52.21,114.106 63.484,108.903 67.82,113.239C72.156,117.575 47.007,127.548 44.839,136.22C42.671,144.892 59.148,136.22 66.519,140.122Z" style="fill:rgb(105,107,59);stroke:rgb(105,107,59);stroke-width:0.7px;"/>
    </g>
    <g transform="matrix(1.40731,0,0,1.4661,-156.547,-49.6688)">
        <path d="M156.275,107.168C161.714,102.862 153.24,143.158 154.974,149.662C156.708,156.166 180.123,158.767 181.858,153.564C183.592,148.361 173.619,111.938 181.424,105.434C188.362,109.77 197.467,105.434 193.998,94.16C202.671,88.957 208.741,84.187 202.237,72.046C210.475,61.206 196.166,53.401 190.53,57.304C189.229,45.163 171.451,45.163 171.017,54.269C158.009,45.163 147.603,46.897 147.169,57.737C130.692,52.534 125.489,75.949 139.364,77.25C129.825,85.922 135.462,92.426 141.099,95.027C134.161,103.7 145.435,114.54 156.275,107.168Z" style="fill:rgb(105,107,59);stroke:rgb(105,107,59);stroke-width:0.7px;"/>
    </g>
    <g transform="matrix(1.06471,0,0,1.26725,19.2693,-15.3976)">
        <path d="M272.047,76.816C281.895,69.545 265.543,136.22 273.782,146.626C282.02,157.033 294.595,153.998 302.833,146.626C311.072,139.255 295.028,89.391 298.497,78.55C314.107,96.762 364.405,92.859 315.841,70.746C342.725,58.171 358.334,42.561 311.939,53.401C336.221,39.092 347.494,13.51 289.825,40.827C269.879,26.084 190.963,35.624 266.844,51.233C219.147,44.296 200.069,96.762 254.703,64.242C241.695,73.781 223.05,113.672 272.047,76.816Z" style="fill:rgb(105,107,59);stroke:rgb(105,107,59);stroke-width:0.85px;"/>
    </g>
</svg>
